<?xml version="1.0" encoding="utf-8"?>
<!-- Generated by IcoMoon.io -->
<!DOCTYPE svg PUBLIC "-//W3C//DTD SVG 1.1//EN" "http://www.w3.org/Graphics/SVG/1.1/DTD/svg11.dtd">
<svg version="1.1" xmlns="http://www.w3.org/2000/svg" xmlns:xlink="http://www.w3.org/1999/xlink" width="42" height="42" viewBox="0 0 42 42">
<path fill="#444444" d="M21.75 19.5q0-0.328-0.211-0.539t-0.539-0.211q-1.547 0-2.648 1.102t-1.102 2.648q0 0.328 0.211 0.539t0.539 0.211 0.539-0.211 0.211-0.539q0-0.937 0.656-1.594t1.594-0.656q0.328 0 0.539-0.211t0.211-0.539zM27 22.547q0 2.484-1.758 4.242t-4.242 1.758-4.242-1.758-1.758-4.242 1.758-4.242 4.242-1.758 4.242 1.758 1.758 4.242zM3 36h36v-3h-36v3zM30 22.547q0-3.727-2.637-6.363t-6.363-2.637-6.363 2.637-2.637 6.363 2.637 6.363 6.363 2.637 6.363-2.637 2.637-6.363zM6 7.5h9v-3h-9v3zM3 12h36v-6h-19.406l-1.5 3h-15.094v3zM42 6v30q0 1.242-0.879 2.121t-2.121 0.879h-36q-1.242 0-2.121-0.879t-0.879-2.121v-30q0-1.242 0.879-2.121t2.121-0.879h36q1.242 0 2.121 0.879t0.879 2.121z"></path>
</svg>
